<?xml version="1.0" standalone="no"?>
<!DOCTYPE svg PUBLIC "-//W3C//DTD SVG 20010904//EN"
 "http://www.w3.org/TR/2001/REC-SVG-20010904/DTD/svg10.dtd">
<svg version="1.0" xmlns="http://www.w3.org/2000/svg"
 width="200.000000pt" height="200.000000pt" viewBox="0 0 200.000000 200.000000"
 preserveAspectRatio="xMidYMid meet">
<metadata>
Created by potrace 1.11, written by Peter Selinger 2001-2013
</metadata>
<g transform="translate(0.000000,200.000000) scale(0.100000,-0.100000)"
fill="#000000" stroke="none">
<path d="M1050 1990 c0 -3 -23 -6 -52 -7 -53 -2 -108 -19 -108 -34 0 -13 -96
-59 -156 -75 -87 -22 -150 -26 -181 -11 -15 8 -44 17 -63 20 -19 3 -44 8 -55
12 -31 11 43 -55 98 -87 l46 -27 -107 -105 c-59 -57 -125 -118 -147 -136 -81
-63 -82 -64 -62 -68 9 -2 41 3 69 12 29 8 53 14 55 13 1 -2 -9 -25 -22 -52
-14 -26 -25 -56 -24 -64 0 -9 7 2 16 24 26 63 62 115 79 115 15 0 15 -2 0 -22
-28 -40 -54 -93 -75 -155 -18 -53 -19 -69 -10 -149 16 -140 9 -203 -29 -261
-27 -43 9 -25 66 32 30 30 57 55 59 55 1 0 4 -17 5 -37 l1 -38 6 35 5 35 6
-45 c6 -48 -7 -81 -44 -113 -17 -14 -17 -16 -3 -11 23 8 22 -7 -4 -40 -11 -14
-26 -23 -32 -19 -6 3 -2 -9 10 -28 11 -19 18 -40 16 -46 -5 -15 6 -17 24 -5 9
6 7 12 -7 25 -16 14 -18 21 -10 37 17 32 27 31 50 -5 12 -19 33 -41 48 -48 15
-7 26 -19 24 -26 -1 -7 2 -10 8 -6 6 4 -1 21 -19 42 -17 20 -28 40 -24 45 3 5
12 -1 21 -14 8 -13 29 -38 46 -57 25 -27 26 -31 9 -22 -16 8 -24 8 -29 0 -5
-9 -11 -7 -19 4 -7 10 -29 28 -49 42 -32 22 -37 23 -34 8 1 -10 -1 -23 -4 -29
-4 -6 -1 -11 6 -11 24 0 126 -48 126 -59 0 -6 15 -18 33 -27 31 -17 14 -18
-28 -2 -11 4 -2 -6 20 -23 22 -17 51 -31 65 -31 l25 0 -25 15 -25 15 25 -7
c35 -9 63 -31 66 -49 3 -19 0 -19 -37 1 -29 15 -30 15 -20 -5 7 -12 26 -23 46
-27 20 -3 40 -15 46 -25 7 -14 6 -17 -4 -13 -11 4 -13 -1 -10 -20 4 -20 14
-28 42 -35 86 -23 162 -33 203 -28 105 14 98 15 98 -13 0 -32 -138 -177 -221
-232 -31 -20 -69 -54 -84 -75 -16 -21 -21 -32 -12 -24 9 7 17 9 17 3 0 -13 25
-23 69 -29 30 -3 39 1 67 33 28 30 37 35 60 30 21 -6 25 -4 21 8 -4 9 -2 16 3
16 6 0 10 -6 10 -12 0 -10 3 -9 9 1 5 8 14 10 21 6 9 -6 11 -4 6 4 -5 7 -14
10 -20 8 -14 -6 -41 31 -31 41 10 10 29 9 37 -3 5 -6 8 -6 8 2 0 6 -7 19 -16
27 -8 9 -11 16 -6 16 5 0 9 6 8 13 -3 27 18 16 29 -16 18 -51 98 -176 114
-177 10 0 10 5 -3 22 -9 13 -19 31 -23 41 -3 9 -10 17 -15 17 -5 0 -7 4 -4 9
3 4 -3 16 -14 26 -36 32 -25 45 38 46 31 1 71 5 87 10 19 5 -3 7 -63 4 -104
-5 -114 1 -91 57 7 17 13 68 13 113 l1 82 30 -19 c17 -10 40 -18 52 -18 12 0
28 -7 37 -15 23 -24 76 -15 114 19 17 16 32 35 32 41 0 7 9 20 19 29 11 10 21
27 23 39 5 34 22 29 43 -14 22 -47 58 -70 78 -50 9 10 9 12 -3 10 -18 -3 -50
10 -50 21 0 4 9 10 20 13 11 3 20 1 20 -3 0 -16 41 -6 58 14 9 11 12 16 5 13
-13 -8 -29 28 -24 53 2 8 0 12 -5 8 -4 -4 -14 -2 -22 5 -13 9 -14 9 -8 0 4 -7
2 -13 -3 -13 -15 0 -14 16 4 33 8 8 11 17 8 21 -7 7 16 36 29 36 5 0 6 -6 2
-12 -5 -9 -2 -8 9 1 13 10 16 22 12 45 -5 27 0 38 39 81 25 27 43 51 41 54 -3
2 0 10 6 17 12 15 47 78 79 142 18 35 24 41 36 31 17 -14 17 -9 3 28 -12 31
-13 123 -2 163 3 14 7 46 7 73 1 45 8 58 21 37 3 -5 22 -10 41 -10 38 0 43 11
17 38 -10 11 -26 31 -37 45 -10 15 -27 29 -38 33 -32 10 -2 24 52 24 l45 0
-52 29 c-74 41 -106 68 -162 138 l-50 62 30 6 c44 10 35 25 -17 25 -25 0 -43
4 -40 9 3 5 -14 12 -38 15 -44 7 -96 35 -66 36 9 0 5 6 -10 15 -14 8 -20 14
-14 15 16 0 100 76 125 113 16 22 4 15 -37 -24 -65 -63 -137 -104 -162 -94
-13 5 -4 11 29 24 57 22 134 82 118 92 -8 5 -7 8 2 12 8 3 -6 5 -31 5 -28 -1
-34 -3 -17 -5 15 -2 25 -9 22 -14 -8 -12 -222 -12 -230 0 -5 9 -68 14 -152 13
-21 0 -33 4 -33 13 0 7 3 15 8 17 4 2 18 16 32 31 l25 29 -67 -4 c-38 -2 -68
-5 -68 -8z m-133 -276 c35 -19 67 -44 73 -54 6 -11 17 -20 25 -20 17 0 75 -33
75 -42 0 -5 6 -8 14 -8 17 0 66 -56 66 -76 0 -8 3 -13 8 -13 21 4 23 -3 6 -23
-14 -17 -15 -20 -2 -9 21 15 33 9 60 -33 l19 -31 -6 35 c-8 49 -65 200 -87
232 -10 14 -18 29 -18 32 0 12 55 -22 75 -45 l20 -24 -25 20 -25 20 18 -22
c11 -12 24 -20 31 -17 14 5 85 -70 129 -136 16 -23 30 -40 32 -38 2 2 -2 32
-9 66 -10 51 -10 61 0 50 7 -7 14 -19 16 -26 2 -8 23 -35 47 -60 119 -128 186
-394 146 -576 -33 -149 -184 -338 -306 -384 -176 -65 -379 -16 -532 128 -68
63 -127 138 -131 165 -1 8 -10 22 -19 33 -17 18 -38 72 -51 127 l-7 30 20 -31
c17 -28 41 -52 41 -41 0 2 -8 19 -17 38 -17 34 -21 148 -13 394 l2 70 10 -45
c29 -135 44 -156 47 -65 4 123 58 353 95 407 15 21 16 21 22 2 18 -56 82 -194
105 -229 25 -38 77 -91 67 -70 -2 6 -25 53 -50 105 -25 52 -53 115 -61 140 -9
25 -19 53 -22 63 -7 15 -4 16 21 7 16 -6 57 -27 91 -46z m-525 -529 l-6 -120
-7 85 c-5 53 -3 99 3 123 6 20 12 36 14 35 1 -2 -1 -57 -4 -123z m1328 63 c16
-26 20 -45 16 -88 -7 -87 -66 -220 -103 -234 -13 -6 -6 20 22 74 19 37 19 54
0 20 l-14 -25 -1 30 c0 17 4 35 10 41 6 6 5 19 -4 36 -14 26 -13 26 12 22 l27
-5 -25 27 -25 26 25 -6 c14 -4 20 -4 14 1 -17 13 -23 40 -11 52 6 6 7 11 3 11
-5 0 -3 7 4 15 27 33 1 24 -29 -10 -17 -20 -31 -30 -31 -23 1 26 48 67 78 68
7 0 21 -15 32 -32z m40 -194 c0 -8 -4 -14 -9 -14 -5 0 -13 -10 -16 -22 -12
-41 -30 -78 -37 -78 -11 0 -10 18 2 25 5 3 17 30 26 60 16 49 34 65 34 29z
m-1265 -160 c-10 -15 -15 -38 -13 -55 3 -16 1 -29 -4 -29 -13 0 -23 5 -22 10
1 3 5 16 9 30 7 23 7 24 -11 10 -10 -8 -3 3 15 23 41 43 50 47 26 11z m1168
-3 c-5 -18 -33 -38 -33 -24 0 6 30 43 36 43 1 0 0 -9 -3 -19z m-1084 -27 c22
-14 42 -32 45 -40 8 -21 1 -18 -36 16 -32 30 -68 40 -68 19 0 -5 4 -7 10 -4
10 6 70 -33 70 -47 0 -4 -10 -8 -22 -8 -19 0 -20 -2 -8 -10 8 -5 23 -7 33 -4
21 6 23 -14 2 -22 -13 -5 -13 -10 -1 -33 14 -26 21 -31 100 -65 21 -9 36 -19
34 -21 -8 -9 -96 22 -127 44 -42 30 -115 154 -106 180 8 28 27 26 74 -5z
m1027 -46 c-22 -31 -20 -41 7 -33 21 7 21 6 4 -11 -15 -16 -19 -17 -26 -5 -7
11 -13 7 -27 -15 -39 -65 -89 -136 -98 -142 -6 -3 -1 8 10 25 108 170 131 203
140 203 3 0 -2 -10 -10 -22z m-974 -70 c8 -7 27 -20 43 -28 40 -21 46 -43 8
-34 -32 8 -73 41 -73 61 0 16 5 16 22 1z m43 -8 c3 -6 -1 -7 -9 -4 -18 7 -21
14 -7 14 6 0 13 -4 16 -10z m915 -70 c0 -5 -2 -10 -4 -10 -3 0 -8 5 -11 10 -3
6 -1 10 4 10 6 0 11 -4 11 -10z m-874 -40 c8 0 14 -4 14 -9 0 -8 -21 -8 -40
-1 -3 1 -8 2 -12 1 -5 0 -8 4 -8 10 0 6 7 8 16 5 9 -3 22 -6 30 -6z m72 -18
c2 -7 -2 -10 -12 -6 -9 3 -16 11 -16 16 0 13 23 5 28 -10z m-48 -32 c0 -5 -4
-10 -10 -10 -5 0 -10 5 -10 10 0 6 5 10 10 10 6 0 10 -4 10 -10z m146 -90 c46
-22 84 -45 84 -51 0 -7 12 -9 34 -5 24 5 37 2 46 -9 18 -22 5 -30 -25 -17 -14
7 -52 12 -85 12 -63 0 -90 7 -90 22 0 5 19 6 46 2 29 -4 45 -3 41 3 -3 5 -30
10 -59 12 -29 1 -57 7 -63 13 -7 8 -3 9 13 5 30 -7 19 8 -18 23 -16 7 -27 16
-24 21 8 13 9 13 100 -31z m611 18 c1 -10 -5 -18 -13 -18 -8 0 -14 8 -14 18 0
24 26 24 27 0z m-441 -16 c15 -9 37 -52 31 -59 -3 -3 -13 9 -21 25 -9 17 -24
33 -33 35 -13 3 -13 5 -3 6 8 0 20 -3 26 -7z"/>
<path d="M1516 1377 c3 -10 9 -15 12 -12 3 3 0 11 -7 18 -10 9 -11 8 -5 -6z"/>
<path d="M1285 1365 c-36 -20 -65 -45 -65 -57 0 -5 13 1 28 12 39 29 101 42
142 30 35 -10 63 -3 39 10 -33 18 -114 21 -144 5z"/>
<path d="M1423 1283 c-27 -5 -28 -9 -9 -29 17 -16 30 -19 21 -4 -4 6 -1 17 5
25 7 8 11 14 9 14 -2 -1 -14 -4 -26 -6z"/>
<path d="M641 1254 c0 -11 3 -14 6 -6 3 7 2 16 -1 19 -3 4 -6 -2 -5 -13z"/>
<path d="M970 1266 c0 -2 8 -10 18 -17 15 -13 16 -12 3 4 -13 16 -21 21 -21
13z"/>
<path d="M1318 1253 c-3 -12 -14 -23 -24 -26 -11 -2 -7 -3 9 -1 16 2 27 -1 27
-8 0 -7 5 -5 13 4 6 8 21 21 32 28 l20 12 -20 -7 c-11 -4 -25 -9 -32 -12 -6
-2 -13 4 -15 14 -3 16 -5 15 -10 -4z"/>
<path d="M714 1184 c-48 -32 -73 -63 -74 -89 0 -15 6 -12 26 17 30 42 103 78
159 78 22 0 34 4 30 10 -3 6 -28 10 -54 10 -35 0 -59 -7 -87 -26z"/>
<path d="M1012 1180 c0 -14 2 -19 5 -12 2 6 2 18 0 25 -3 6 -5 1 -5 -13z"/>
<path d="M1470 1179 c-19 -10 -105 -32 -190 -49 -146 -28 -286 -67 -277 -76 2
-2 24 3 48 12 24 8 118 31 209 49 172 35 208 45 243 70 29 20 10 17 -33 -6z"/>
<path d="M1541 1088 c-1 -37 -7 -55 -29 -79 -24 -27 -29 -29 -29 -13 0 10 6
28 13 39 16 23 18 39 4 30 -5 -3 -10 -1 -10 5 0 6 -11 2 -26 -9 -15 -12 -40
-20 -62 -19 -94 0 -339 -71 -471 -137 -106 -53 -146 -75 -136 -75 6 0 2 -7 -8
-15 -11 -7 -26 -11 -35 -8 -10 5 -13 3 -8 -6 6 -9 21 -10 48 -6 27 5 38 4 34
-3 -3 -6 2 -13 11 -15 10 -3 1 -5 -20 -6 -58 -2 -102 21 -116 59 -17 49 -14
56 27 77 78 42 152 85 152 90 0 2 -39 -17 -86 -42 -48 -26 -97 -50 -109 -54
l-23 -6 32 -70 c37 -81 127 -184 183 -210 21 -10 44 -24 51 -32 18 -18 35 -16
64 6 35 28 130 69 224 96 95 28 263 60 271 52 9 -9 -89 -102 -140 -131 -26
-16 -69 -34 -95 -42 -45 -13 -45 -14 -7 -8 96 14 226 115 282 219 38 70 38 70
37 185 -1 63 -6 129 -12 145 -10 29 -10 28 -11 -17z m-203 -189 c27 0 27 0 4
-10 -13 -5 -20 -13 -17 -19 9 -14 21 -12 39 5 14 14 18 14 45 1 47 -25 103
-83 99 -103 -2 -14 -11 -17 -34 -15 -70 7 -310 -60 -424 -118 -43 -22 -70 -19
-49 6 14 17 5 18 -21 4 -17 -9 -19 -8 -13 7 3 10 12 26 19 36 6 10 9 28 6 39
-4 16 -2 19 8 13 9 -5 11 -4 6 4 -4 6 0 24 9 38 13 20 19 23 26 12 5 -8 2 -20
-7 -30 -16 -18 -19 -50 -3 -46 13 3 79 61 79 70 0 9 -33 -4 -43 -17 -5 -6 -6
2 -2 19 3 17 14 36 23 43 9 7 24 19 33 26 9 8 32 17 50 20 19 3 28 3 22 0 -16
-7 -17 -31 -2 -36 6 -2 -7 -12 -30 -22 -22 -11 -41 -22 -41 -26 0 -10 49 0 56
11 3 5 13 9 22 9 21 1 79 47 69 56 -3 4 -13 1 -21 -5 -8 -7 -20 -10 -26 -6
-22 13 48 48 78 39 8 -2 26 -4 40 -5z m-348 -290 c0 -10 -22 -17 -37 -12 -7 3
-13 13 -13 24 0 16 3 17 25 7 14 -6 25 -15 25 -19z"/>
<path d="M1088 693 c6 -2 18 -2 25 0 6 3 1 5 -13 5 -14 0 -19 -2 -12 -5z"/>
<path d="M950 1035 c-14 -8 -20 -14 -15 -14 6 0 21 6 35 14 14 8 21 14 15 14
-5 0 -21 -6 -35 -14z"/>
<path d="M988 563 c7 -3 16 -2 19 1 4 3 -2 6 -13 5 -11 0 -14 -3 -6 -6z"/>
<path d="M1050 550 c25 -8 157 -13 149 -6 -2 2 -42 6 -89 8 -47 3 -74 2 -60
-2z"/>
<path d="M1699 1228 c4 -28 6 -29 9 -9 2 13 0 27 -5 32 -6 6 -7 -3 -4 -23z"/>
<path d="M1188 1966 l-17 -35 57 -6 c31 -4 75 -11 97 -16 22 -5 67 -8 100 -7
41 1 47 2 20 5 -22 1 -88 10 -147 19 -101 16 -107 18 -97 36 6 10 9 24 7 29
-2 6 -11 -5 -20 -25z"/>
<path d="M1670 1996 c0 -3 18 -23 40 -45 39 -39 44 -50 41 -81 -1 -12 0 -12 7
-2 11 17 15 12 86 -108 51 -86 56 -91 56 -61 0 18 -9 45 -21 59 -11 15 -39 57
-63 94 -52 82 -111 148 -131 148 -8 0 -15 -2 -15 -4z"/>
<path d="M458 1735 c-27 -19 -58 -50 -70 -69 -12 -18 -41 -46 -65 -61 -49 -30
-57 -43 -15 -21 22 11 210 187 199 186 -1 0 -23 -16 -49 -35z"/>
<path d="M1551 1750 c9 -5 36 -12 60 -15 31 -3 37 -3 19 3 -43 15 -97 23 -79
12z"/>
<path d="M1668 1723 c6 -2 18 -2 25 0 6 3 1 5 -13 5 -14 0 -19 -2 -12 -5z"/>
<path d="M1856 1653 c19 -47 34 -64 34 -39 0 20 -30 76 -42 76 -4 0 0 -17 8
-37z"/>
<path d="M1834 1211 c-5 -3 -10 -18 -11 -32 -1 -22 2 -26 19 -21 18 4 25 15
32 48 1 9 -29 13 -40 5z"/>
<path d="M1827 1013 c-4 -3 -7 -13 -7 -20 0 -12 3 -12 15 1 8 8 15 17 15 20 0
8 -15 7 -23 -1z"/>
<path d="M370 736 c0 -2 7 -7 16 -10 8 -3 12 -2 9 4 -6 10 -25 14 -25 6z"/>
<path d="M353 694 c9 -11 17 -25 17 -30 0 -14 63 -74 78 -74 7 0 12 -4 12 -9
0 -5 10 -13 23 -17 12 -3 30 -13 40 -22 9 -8 17 -10 17 -4 0 6 -6 12 -12 15
-7 2 -10 7 -7 11 3 3 28 -10 55 -29 27 -19 55 -35 62 -35 7 0 11 -4 8 -8 -2
-4 7 -9 22 -10 26 -1 26 -1 8 13 -11 8 -25 15 -32 15 -7 0 -19 12 -26 27 -7
15 -29 36 -48 47 -33 19 -34 19 -20 1 14 -17 13 -18 -5 -10 -11 4 -40 13 -64
20 -25 7 -47 18 -50 26 -4 12 -2 12 13 0 9 -8 19 -11 22 -8 3 3 -8 13 -25 21
-17 9 -48 31 -68 48 -21 18 -30 23 -20 12z"/>
<path d="M430 670 c6 -11 12 -20 13 -20 1 0 23 -7 50 -15 26 -8 47 -10 47 -5
0 6 -11 10 -24 10 -13 0 -40 11 -60 25 -33 22 -35 23 -26 5z"/>
<path d="M1710 632 c-19 -9 -38 -20 -41 -25 -3 -5 -9 -1 -13 8 -3 9 -11 13
-17 9 -26 -15 -3 -145 55 -318 31 -92 63 -180 71 -195 l14 -26 -6 35 c-7 40
-32 121 -60 195 -11 28 -25 73 -32 100 -6 28 -14 58 -18 69 -4 14 -2 16 8 11
11 -6 12 -5 2 6 -7 7 -13 19 -13 27 0 12 3 12 15 2 12 -10 15 -9 15 7 0 11 11
25 24 32 20 11 44 66 33 77 -1 2 -18 -5 -37 -14z"/>
<path d="M354 594 c4 -12 2 -15 -9 -10 -29 11 -13 -10 43 -54 132 -105 215
-151 300 -165 61 -10 53 10 -10 25 -84 19 -155 67 -253 168 -51 51 -83 68 -71
36z"/>
<path d="M438 553 c7 -3 16 -2 19 1 4 3 -2 6 -13 5 -11 0 -14 -3 -6 -6z"/>
<path d="M555 490 c112 -55 132 -60 113 -31 -6 10 -17 17 -24 14 -6 -2 -36 9
-65 25 -30 16 -70 32 -89 36 -24 4 -5 -9 65 -44z"/>
<path d="M1457 345 c-37 -43 -87 -122 -87 -138 0 -18 21 6 41 46 12 23 37 59
55 80 19 20 34 42 34 47 0 15 -2 13 -43 -35z"/>
<path d="M773 356 c16 -9 56 -21 90 -28 34 -6 66 -15 70 -18 11 -10 99 9 114
24 9 8 -4 10 -54 8 -37 -2 -94 1 -127 7 -34 7 -74 14 -91 17 l-30 5 28 -15z"/>
</g>
</svg>
